<?xml version="1.0" encoding="utf-8"?>
<!-- Generator: Adobe Illustrator 23.0.1, SVG Export Plug-In . SVG Version: 6.00 Build 0)  -->
<svg version="1.1" id="Ebene_1" xmlns="http://www.w3.org/2000/svg" xmlns:xlink="http://www.w3.org/1999/xlink" x="0px" y="0px"
	 viewBox="0 0 266.340271 121.8240585" style="enable-background:new 0 0 266.340271 121.8240585;" xml:space="preserve">
<style type="text/css">
	.st0{fill:#004587;}
	.st1{fill:#0070BA;}
</style>
<g>
	<path class="st0" d="M108.0892639,0C197.0931396,3.3547466,266.340271,29.2621574,266.340271,60.7291107
		c0,33.7412415-79.6317139,61.0949478-177.8641052,61.0949478c-32.2098732,0-62.4183044-2.9415894-88.4761734-8.0837326
		c13.6937256,0.9874649,27.9566364,1.5106583,42.6063156,1.5106583c104.5519943,0,189.3055725-26.6174698,189.3055725-59.4510918
		C231.9118958,30.1930542,180.3695679,8.3690481,108.0892639,0L108.0892639,0L108.0892639,0z"/>
	<path class="st1" d="M93.7486191,8.1705971c69.6077194,2.6223011,123.762886,22.8854218,123.762886,47.4942093
		c0,26.3876152-62.2757568,47.7793007-139.1004639,47.7793007c-25.1892281,0-48.8148956-2.3001175-69.1933899-6.3222733
		c10.7099333,0.7729797,21.8629875,1.1828003,33.3210716,1.1828003c81.765007,0,148.0479431-20.8172684,148.0479431-46.4948235
		C190.5866547,31.7841206,150.2765198,14.7153816,93.7486191,8.1705971L93.7486191,8.1705971L93.7486191,8.1705971z"/>
</g>
</svg>
